PathFileType	4	(X/Y/Z)	path1_12_0-587.trc
DataRate	CameraRate	NumFrames	NumMarkers	Units	OrigDataRate	OrigDataStartFrame	OrigNumFrames
30	30	8	22	m	30	366	587
Frame#	Time	Hip			RHip			RKnee			RAnkle			RBigToe			RSmallToe			RHeel			LHip			LKnee			LAnkle			LBigToe			LSmallToe			LHeel			Neck			Head			Nose			RShoulder			RElbow			RWrist			LShoulder			LElbow			LWrist		
		X1	Y1	Z1	X2	Y2	Z2	X3	Y3	Z3	X4	Y4	Z4	X5	Y5	Z5	X6	Y6	Z6	X7	Y7	Z7	X8	Y8	Z8	X9	Y9	Z9	X10	Y10	Z10	X11	Y11	Z11	X12	Y12	Z12	X13	Y13	Z13	X14	Y14	Z14	X15	Y15	Z15	X16	Y16	Z16	X17	Y17	Z17	X18	Y18	Z18	X19	Y19	Z19	X20	Y20	Z20	X21	Y21	Z21	X22	Y22	Z22
367	12.233333333333333	2.2576691859665305	0.819750851291664	0.6452654443661858	2.266812001492379	0.8133766160650496	0.56299744387549	2.1509264933488055	0.48952655098179937	0.5723085567773046	2.1249530012522415	0.11786246776671948	0.5751139461453265	1.9387159445578737	0.04797045190362412	0.5597646502893769	1.990765853159453	0.03645662577453808	0.5042303512424546	2.16037875352123	0.041414186191552224	0.5993595850875616	2.2538634898864505	0.7967560070748364	0.7328960234715307	2.328150335483746	0.4398756043203253	0.735175052347396	2.589156136744453	0.16095927593051726	0.721975815887023	2.5051134886709816	0.0021733855352639294	0.6929088317641542	2.5367194526986974	0.021376884589245103	0.7435743337889996	2.66427808654757	0.1411422409611003	0.70081348252639	2.2245962487660305	1.4210764035993164	0.6726923972929438	2.156773939074269	1.6618952564723453	0.6640828502090625	2.0839052418314123	1.5560358718734673	0.6702787945413394	2.304552782266567	1.3534481111723526	0.5065181457194572	2.3752750948812387	1.0835856365162302	0.483620758404869	2.384362847075264	0.8344105476666901	0.45379565570042524	2.212139993813455	1.3254088555340824	0.850180112285452	2.1906096374438366	1.0418385815260578	0.866659842282982	2.0825485439110434	0.832659506244949	0.8715649446401981
368	12.266666666666667	2.2311624617872665	0.8231491774439794	0.6425851869166239	2.239927346689889	0.8160774289152296	0.5593834695987924	2.136232527441183	0.4881357403616697	0.5681140989667678	2.1246865408413793	0.11494769793369178	0.5741994333742638	1.935834386201043	0.0455202522190524	0.5594545606413048	1.9904950213142552	0.03387907248700445	0.5045626797050461	2.1632354246518424	0.0421972193058756	0.5988441151768736	2.225036699514021	0.8006269340374346	0.7301974714895592	2.2719061457146945	0.4450598534513152	0.7372990266804111	2.552285915852333	0.17844587097414563	0.7220911236864882	2.4880677356948517	0.010692093796293779	0.7004581516811577	2.515704837621921	0.03477514872481416	0.7488451799943907	2.6285297307257505	0.17260963268674842	0.706298413736076	2.199043572034638	1.4248463123812998	0.6644542118541895	2.129670938679577	1.6641767453189193	0.6559882438362425	2.058037942580962	1.5567187927268065	0.6673451617779053	2.2727862056784827	1.3554867955075889	0.4981487081501501	2.3371330729779425	1.082588941153397	0.474544619449518	2.3389342326363223	0.8310573548627972	0.4406294773232858	2.1870899760624374	1.3293494282532705	0.8424892353694369	2.174474909802501	1.0459050931430354	0.8632334019685897	2.076496625539048	0.8324003447816175	0.8724183624181988
369	12.3	2.206627155350312	0.8263769296006458	0.6403249074624962	2.2152127063912515	0.8180325987101401	0.5558580385145063	2.1233658987862674	0.4849001064931134	0.5618341930087697	2.1249111174286566	0.11251169903211541	0.5729612893406311	1.9335918541399089	0.04442697781274315	0.5593065535789806	1.9899024801968432	0.032555693850639084	0.5045796802857782	2.1661459352597534	0.04274592690654198	0.5987045003472581	2.1980549680361072	0.8041716027554828	0.7278662507198715	2.2093933199863565	0.45129687684550673	0.7388663434108594	2.5069669400859245	0.19564757455907278	0.7222559191314141	2.456723297081844	0.02276592676877083	0.7097720266226032	2.482167279253987	0.049802395504671755	0.7556195920936634	2.581599664706088	0.19925283671812763	0.7131343936986873	2.1733051848651614	1.4294392782262504	0.6568076408926333	2.1023448205477675	1.6675722212701931	0.6475092428411799	2.031665064676073	1.5573082172343888	0.6640597262485316	2.2416048922260567	1.3580789129247308	0.4907550135638258	2.296704315362379	1.0808445763585857	0.4641689267987388	2.2900394230122956	0.8282471950192042	0.4264663666599942	2.161506656679848	1.3329568238718865	0.8337415429149457	2.1587875046593505	1.0506687355094548	0.8604691459553783	2.0722320712226208	0.8321151787120535	0.8748601322859925
370	12.333333333333334	2.1840274228060337	0.8295206312443819	0.6383857331976297	2.1927418145787874	0.8194324407060796	0.5523083334405925	2.1123004840172843	0.4806259749214652	0.554359079293707	2.125383711771721	0.11081636438907178	0.5717355479033934	1.932207967645356	0.04410908021082756	0.5593569787191989	1.988454845467324	0.032366609157743476	0.5043758967857792	2.1684663361207677	0.04327670199943019	0.5989060528340158	2.173060124273274	0.8075138299916467	0.7259051664258046	2.143292668360693	0.4594274327136977	0.7393314436640196	2.45328370196951	0.21055573599332994	0.7223695630850298	2.4073332022858667	0.03779143345486086	0.7199669638594379	2.4335553194507806	0.06538016997880963	0.7636060045817206	2.523256951363291	0.21648123026601604	0.7207534538629577	2.147314144294771	1.434468336497335	0.6503766518398446	2.0749874398347883	1.6712992354586522	0.6393967650995074	2.0041809141108966	1.5579626900526415	0.6596671329523472	2.2114805522578336	1.3612290165218905	0.48513201310243204	2.2545009963510574	1.0782234482082684	0.4529900974029387	2.2381804356819752	0.8264718148194227	0.41174226301430833	2.1359978553076666	1.3363222977348297	0.8251784229492289	2.143452226219823	1.0551351049000517	0.857815498720764	2.0694771425262344	0.8316077192316464	0.8780230745489042
371	12.366666666666667	2.1626960023073374	0.8327949044745531	0.6367586587984693	2.1717983919519273	0.8205256814449762	0.548685439325767	2.1028907971623023	0.4756846376188793	0.5466464337773307	2.1260502061219135	0.1097920828424674	0.5709230487488584	1.9318186373033746	0.04399580735444855	0.5595792086148487	1.9863002314208726	0.03292461798116627	0.5040645025723909	2.1700374901459436	0.043668621130773966	0.5993995370159116	2.1493077256831183	0.8109201774733032	0.7242480292768697	2.077147112571939	0.47014027723719803	0.7388863607387446	2.3909591035951365	0.2206640568009795	0.7222297647018353	2.3377424823275885	0.053812736384657646	0.7301685420109202	2.368136590002094	0.07975913489658197	0.7722499476648026	2.453884620573831	0.22135139876136561	0.7281747146198237	2.1209965184875035	1.4397114359533805	0.6456060532113841	2.0477338980785893	1.6745520739169173	0.6325032398560454	1.9756081061341033	1.5588691968819408	0.6542187238560676	2.181892969636601	1.3643932485051358	0.4809729362526934	2.2111086490132363	1.0753241568249288	0.44175137729592107	2.184027896104571	0.8261669113267363	0.39736294267816696	2.110880520012331	1.3395109010382122	0.8179553416275563	2.1282991959346202	1.0588672991096804	0.8552587911322715	2.0679654017323017	0.8309553906764764	0.8810249105740872
372	12.4	2.141429878588831	0.8362530705365353	0.6355846960785912	2.151201709528082	0.8214499946999453	0.545287518273305	2.0943341013449963	0.4705018915797574	0.5396045793550536	2.1267983195847324	0.10922745566871875	0.5709283706814863	1.932208264478304	0.04370347184427725	0.5599397951172108	1.9841065464247156	0.03371907038012168	0.5038058411731725	2.1714139859643535	0.0433799731230058	0.6001758435146085	2.1252137374243425	0.8145696164586955	0.7229071026707502	2.014430091563777	0.4831038210726418	0.7381175359601959	2.31973525999618	0.22359346836692096	0.7220295773696155	2.2484526363672113	0.06767783341666826	0.7396374450825262	2.2856936148291966	0.09033620494079604	0.7808799126751129	2.3745536957441584	0.2134966594353467	0.7346074940073352	2.094290601427383	1.4448812468373728	0.6426556047505954	2.020483860171931	1.6767905374530547	0.6273977550386218	1.9465843340753695	1.56006790492135	0.648377411517648	2.151904081271091	1.3669340036247444	0.47748440092093997	2.1667735899943725	1.0730588169642905	0.430971210380786	2.1278344106201486	0.8277346703424059	0.38440406033310187	2.086027393366941	1.3423574860688663	0.8126623750257344	2.1132070940542595	1.061891139451292	0.8531546379579165	2.067278572111917	0.8303359020494305	0.8832953969225248
373	12.433333333333334	2.118860403247386	0.8396507054632754	0.6349863339524587	2.129880390304892	0.8222753793915153	0.5427030563503557	2.08532934014743	0.46591094389023957	0.5340795039819887	2.127304326158921	0.10891277043659012	0.5719182303986913	1.933029126560562	0.04299553592708685	0.56031857755764	1.9825682371297362	0.03428999739023084	0.5037762861404098	2.1732012734559043	0.04181082305090811	0.6013363041844192	2.0988645641711203	0.8184780542877944	0.7219434870030045	1.9577632404053562	0.49684307287464	0.7373597746824978	2.2399309379642	0.21813852864476005	0.7225692396197443	2.1431405658017444	0.07615053978673596	0.7474735964422999	2.187671008520872	0.09441651870376169	0.7889075031469224	2.287084495034015	0.19466159215775133	0.7398507147441739	2.067174863309605	1.44933294796391	0.6413460135660776	1.9930175088125104	1.6778472730840743	0.6241716620594491	1.918114654364513	1.5614547012934317	0.6431330168076838	2.120957573027633	1.368618329491013	0.47424796646436074	2.121343984087266	1.0719402837353071	0.42082247243769316	2.069814704936083	0.831309910836625	0.373838806852495	2.061196473067787	1.344598344206757	0.8094374780145157	2.0982463959192246	1.0644679290916674	0.8519914699009914	2.066842058909706	0.8297832450145229	0.884614433027568
374	12.466666666666669	2.093944242608625	0.8425234945449986	0.6349246764536245	2.107181971540863	0.8230263995598852	0.5414533384923603	2.075005725528948	0.46268853866672643	0.5307127071440397	2.1271937685973965	0.10853192001302564	0.5736782959179206	1.9341185588452927	0.04167717144045634	0.5605440918531294	1.982053980968924	0.034306747587764676	0.5041990604838495	2.1752654863217056	0.03887544869785604	0.6030153824175538	2.0687617159682454	0.8224256311203995	0.7213345710960262	1.908682647138958	0.50929718705874	0.7366158851169635	2.152555782272655	0.20535570712496665	0.7247621762055299	2.0281697910429446	0.07783858857838273	0.7526576926974398	2.0764977854719606	0.09163999352970413	0.7962945603034298	2.193329332414324	0.1682677416573334	0.7440601080319881	2.039613165641983	1.4521778629701552	0.641229531707298	1.9652318486750828	1.6777360266499886	0.6225953670091972	1.8906831126540162	1.5626872102749814	0.6393731201305188	2.089043341449951	1.3694774948570443	0.47133992305908784	2.0751041914542743	1.0718996776456073	0.4118276824431655	2.010741119779037	0.8365887160772443	0.36643514874820227	2.036194537871977	1.346044841159359	0.8081247437384413	2.083615593277534	1.066921855478336	0.852145793407955	2.065982396945826	0.8292116842290165	0.8849451691126076
